PathFileType	3	(X/Y/Z)	F:\ViconData\AntennenMessung\Messung1\Session1\ID01.trc
DataRate	CameraRate	NumFrames	NumMarkers	Units	OrigDataRate	OrigDataStartFrame	OrigNumFrames
120.0	120.0	4	70	mm	120.0	599	957	
Frame#	Time	Ashort			Along			Atop			A4			Bshort			Blong			Btop			B4			Cshort			Clong			Ctop			C4			Dshort			Dlong			Dtop			D4			Eshort			Elong			Etop			E4			Fshort			Flong			Ftop			F4			Gshort			Glong			Gtop			G4			Hshort			Hlong			Htop			H4			I1			I2			I3			I4			I5			WandAshort			WandAlong			WandAtop			WandA4			WandA15			WandBshort			WandB4			WandB5			WandBtop			WandBlong			WandCshort			WandClong			WandCtop			WandC4			WandC5			Acenter			Aantenna			Bcenter			Bantenna			Ccenter			Cantenna			Dcenter			Dantenna			Ecenter			Eantenna			Fcenter			Fantenna			Gcenter			Gantenna			Hcenter			Hantenna			Icenter			Iantenna			
		X1	Y1	Z1	X2	Y2	Z2	X3	Y3	Z3	X4	Y4	Z4	X5	Y5	Z5	X6	Y6	Z6	X7	Y7	Z7	X8	Y8	Z8	X9	Y9	Z9	X10	Y10	Z10	X11	Y11	Z11	X12	Y12	Z12	X13	Y13	Z13	X14	Y14	Z14	X15	Y15	Z15	X16	Y16	Z16	X17	Y17	Z17	X18	Y18	Z18	X19	Y19	Z19	X20	Y20	Z20	X21	Y21	Z21	X22	Y22	Z22	X23	Y23	Z23	X24	Y24	Z24	X25	Y25	Z25	X26	Y26	Z26	X27	Y27	Z27	X28	Y28	Z28	X29	Y29	Z29	X30	Y30	Z30	X31	Y31	Z31	X32	Y32	Z32	X33	Y33	Z33	X34	Y34	Z34	X35	Y35	Z35	X36	Y36	Z36	X37	Y37	Z37	X38	Y38	Z38	X39	Y39	Z39	X40	Y40	Z40	X41	Y41	Z41	X42	Y42	Z42	X43	Y43	Z43	X44	Y44	Z44	X45	Y45	Z45	X46	Y46	Z46	X47	Y47	Z47	X48	Y48	Z48	X49	Y49	Z49	X50	Y50	Z50	X51	Y51	Z51	X52	Y52	Z52	X53	Y53	Z53	X54	Y54	Z54	X55	Y55	Z55	X56	Y56	Z56	X57	Y57	Z57	X58	Y58	Z58	X59	Y59	Z59	X60	Y60	Z60	X61	Y61	Z61	X62	Y62	Z62	X63	Y63	Z63	X64	Y64	Z64	X65	Y65	Z65	X66	Y66	Z66	X67	Y67	Z67	X68	Y68	Z68	X69	Y69	Z69	X70	Y70	Z70	
599	4.9833333	-1038.2271	214.35048	-1644.1926	-1109.1327	203.20438	-1599.7006	-1063.686	172.72821	-1625.4102	-1053.9802	261.96689	-1634.9658	-1352.9471	235.17932	1003.9919	-1281.3424	227.25336	1052.2555	-1323.0753	194.26288	1020.7676	-1284.5114	287.95532	1052.7922	814.19861	187.57454	1209.3771	892.37158	178.43066	1179.2175	844.56348	145.41048	1198.1326	860.62292	292.48248	1167.1727	1115.8364	209.8047	-1401.7323	1056.2896	194.21675	-1460.2805	1095.0769	162.33318	-1423.8873	1069.9314	238.67093	-1425.9243	-1204.5638	1686.0078	-1563.1364	-1129.1211	1688.333	-1606.5376	-1173.0712	1724.4117	-1581.9927	-1133.5106	1581.1443	-1603.5477	-1239.6664	1699.2826	1119.2388	-1309.3411	1698.8502	1071.7573	-1270.266	1736.1354	1096.6174	-1244.6375	1593.7705	1106.4803	988.89569	1664.2933	1162.2566	957.3551	1700.4154	1183.611	921.79779	1662.2936	1214.7455	939.75415	1659.3523	1159.9257	999.27563	1668.5785	-1579.4779	1058.9894	1670.1749	-1518.646	1025.1302	1708.0117	-1551.1429	1059.3538	1672.2073	-1585.584	-544.95081	141.46783	-348.88831	-539.27924	147.32961	-432.45651	-573.62946	143.31514	-386.87387	-495.06714	141.95099	-382.97318	-541.6347	107.20251	-389.52374																																														-1069.0969	209.49782	-1624.8221	-1074.7744	248.07744	-1624.2051	-1321.7802	231.72945	1024.9991	-1320.4417	270.46021	1029.3735	848.29236	183.58658	1196.2235	852.07904	222.35388	1194.2849	1088.8278	202.73447	-1428.288	1082.9004	241.05476	-1432.462	-1171.8856	1687.0149	-1581.9355	-1170.6501	1648.0345	-1581.8761	-1270.9319	1699.0886	1097.9321	-1271.6324	1660.1194	1099.3149	952.67004	1705.7809	1186.7827	972.66449	1733.9454	1168.6727	1026.636	1669.3098	-1551.6051	1028.152	1630.3422	-1552.0706	-542.51923	143.9809	-384.71576	-503.62158	144.81331	-382.01749
600	4.9916667	-1038.2141	214.30106	-1644.1296	-1109.1572	203.20773	-1599.7217	-1063.6764	172.75876	-1625.3669	-1053.9816	261.95074	-1634.9772	-1353.0005	235.18324	1004.0078	-1281.2853	227.14288	1052.4468	-1323.0981	194.24123	1020.7899	-1284.5024	287.9332	1052.757	814.23975	187.43538	1209.3452	892.40717	178.52184	1179.1901	844.45392	145.42934	1198.088	860.76501	292.46844	1167.3251	1115.838	209.79184	-1401.7285	1056.2931	194.22005	-1460.2919	1095.0253	162.21268	-1423.8755	1069.9087	238.68472	-1425.9227	-1204.575	1686.0189	-1563.1227	-1129.1243	1688.3009	-1606.519	-1173.0675	1724.4185	-1582.0063	-1133.5067	1581.1292	-1603.5338	-1239.6289	1699.2192	1119.2198	-1309.3658	1698.9016	1071.7762	-1270.2754	1736.1495	1096.6243	-1244.6179	1593.9379	1106.3544	988.87762	1664.2452	1162.2632	957.49646	1700.3551	1183.7181	921.75958	1662.2679	1214.7853	939.77509	1659.3669	1159.9136	999.25934	1668.5591	-1579.4698	1058.9868	1670.1663	-1518.6553	1025.1144	1708.0052	-1551.1423	1059.3364	1672.1886	-1585.5967	-544.94208	141.48282	-348.91364	-539.28723	147.33971	-432.46884	-573.61975	143.28889	-386.85434	-495.0704	141.94569	-382.95947	-541.60181	107.25326	-389.55307																																														-1069.0715	209.47588	-1624.8138	-1074.7406	248.05725	-1624.2327	-1321.7993	231.6851	1025.0822	-1320.4561	270.40836	1029.5211	848.10614	183.57353	1196.2803	851.81921	222.35284	1194.4425	1088.8019	202.72153	-1428.3188	1082.9143	241.04468	-1432.5226	-1171.8879	1687.0074	-1581.9227	-1170.6591	1648.027	-1581.8358	-1270.972	1699.0764	1097.8965	-1271.7045	1660.1062	1099.2338	952.7854	1705.7759	1186.9388	972.86603	1733.9352	1168.9161	1026.6266	1669.2954	-1551.6044	1028.1488	1630.3279	-1552.0696	-542.52008	143.9913	-384.70032	-503.6232	144.86983	-382.00626
601	5	-1038.1989	214.23863	-1644.2074	-1109.246	203.36415	-1599.6205	-1063.709	172.73332	-1625.355	-1054.1184	262.05441	-1634.9359	-1353.0131	235.12	1003.9723	-1281.3485	227.03604	1052.4149	-1323.1735	194.17923	1020.8766	-1284.5833	287.92285	1052.7628	814.20068	187.52849	1209.349	892.17896	178.53761	1179.2056	844.60211	145.30678	1198.2332	860.67517	292.49307	1167.2167	1115.8534	209.79797	-1401.7385	1056.3098	194.20688	-1460.267	1095.0944	162.32455	-1423.8717	1069.9341	238.66072	-1425.9117	-1204.5815	1686.0419	-1563.1127	-1129.106	1688.334	-1606.5623	-1173.068	1724.4196	-1582.012	-1133.5768	1581.1583	-1603.5938	-1239.688	1699.3136	1119.2545	-1309.3451	1698.8282	1071.7476	-1270.2742	1736.1436	1096.63	-1244.7197	1593.5839	1106.4154	988.92657	1664.2982	1162.2728	957.54053	1700.3402	1183.734	921.80432	1662.2986	1214.7377	939.8197	1659.4099	1159.9277	999.27222	1668.5745	-1579.4812	1058.8391	1669.9935	-1518.6732	1025.125	1708.0071	-1551.1383	1059.353	1672.2052	-1585.6166	-544.9245	141.47945	-348.89194	-539.29913	147.33592	-432.46185	-573.66235	143.35925	-386.89191	-495.16174	142.26924	-383.52039	-541.64294	107.14241	-389.59991																																														-1069.0286	209.51981	-1624.8595	-1074.6096	248.1149	-1624.3396	-1321.7915	231.59813	1025.0768	-1320.3612	270.32867	1029.4241	848.2298	183.60492	1196.1946	851.90247	222.37674	1194.1309	1088.8497	202.72725	-1428.2816	1082.9272	241.04733	-1432.4642	-1171.8877	1687.0347	-1581.9336	-1170.6569	1648.0541	-1581.8521	-1270.9192	1699.0959	1097.9543	-1271.5978	1660.1267	1099.3475	952.78461	1705.8015	1186.986	972.85931	1733.9907	1169.0035	1026.5529	1669.2242	-1551.632	1027.9878	1630.2538	-1552.1281	-542.51074	143.99237	-384.75061	-503.61057	144.78297	-382.07669
602	5.0083333	-1038.1967	214.32726	-1644.2968	-1109.1621	203.13814	-1599.6973	-1063.718	172.73093	-1625.3528	-1054.1095	262.05804	-1634.9386	-1353.0291	235.18478	1003.9971	-1281.3113	227.03435	1052.4541	-1323.0914	194.27451	1020.7906	-1284.5261	287.94498	1052.781	814.18109	187.52484	1209.2651	892.39917	178.47153	1179.2463	844.30969	145.64305	1198.0892	860.5816	292.2677	1167.2408	1115.8319	209.79782	-1401.7346	1056.3152	194.22734	-1460.2599	1095.0719	162.24184	-1423.8353	1069.9194	238.64835	-1425.8737	-1204.5898	1686.0309	-1563.0929	-1129.0841	1688.1903	-1605.9933	-1173.0687	1724.4236	-1581.9993	-1133.5023	1581.1265	-1603.536	-1239.6539	1699.2834	1119.2462	-1309.3099	1698.786	1071.7305	-1270.2994	1736.1648	1096.6373	-1244.6378	1593.8815	1106.4862	988.95135	1664.3167	1162.2678	957.44147	1700.3429	1183.6616	921.73309	1662.2811	1214.7469	939.82837	1659.3945	1159.9454	999.2597	1668.583	-1579.4871	1058.9824	1670.1666	-1518.6448	1025.1223	1708.009	-1551.1401	1059.3643	1672.2209	-1585.5952	-544.9259	141.46286	-348.89847	-539.28784	147.34914	-432.46347	-573.69745	143.63785	-386.7684	-495.15021	142.27756	-383.49625	-541.61584	107.22924	-389.50388																																														-1069.1759	209.44273	-1624.8271	-1074.9106	248.01486	-1624.275	-1321.7697	231.63228	1025.1179	-1320.3998	270.34933	1029.6027	848.01038	183.60927	1196.2819	851.78973	222.38181	1194.4362	1088.8428	202.73703	-1428.2742	1082.9478	241.05939	-1432.4749	-1171.8307	1686.9678	-1581.7057	-1170.5424	1647.9902	-1581.4003	-1270.9119	1699.0602	1097.9237	-1271.5551	1660.0889	1099.2749	952.63794	1705.8347	1186.9229	972.65332	1734.0421	1168.9026	1026.6252	1669.3086	-1551.6083	1028.1388	1630.3408	-1552.0798	-542.51447	143.98048	-384.64035	-503.60727	144.40802	-381.9852
